<svg xmlns="http://www.w3.org/2000/svg" width="128" height="128" viewBox="0 0 128 128" role="img" aria-label="Vue component analyzer logo">
  <defs>
    <linearGradient id="bg" x1="0" y1="0" x2="1" y2="1">
      <stop offset="0%" stop-color="#0F172A"/>
      <stop offset="100%" stop-color="#111827"/>
    </linearGradient>
    <linearGradient id="vueOuter" x1="0" y1="0" x2="1" y2="1">
      <stop offset="0%" stop-color="#42D392"/>
      <stop offset="100%" stop-color="#33C27F"/>
    </linearGradient>
    <linearGradient id="vueInner" x1="0" y1="0" x2="1" y2="1">
      <stop offset="0%" stop-color="#35495E"/>
      <stop offset="100%" stop-color="#223042"/>
    </linearGradient>
    <radialGradient id="lens" cx="50%" cy="40%" r="60%">
      <stop offset="0%" stop-color="#1F2937" stop-opacity="0.9"/>
      <stop offset="70%" stop-color="#000000" stop-opacity="0.95"/>
      <stop offset="100%" stop-color="#000000"/>
    </radialGradient>
  </defs>

  <!-- background -->
  <rect x="8" y="8" width="112" height="112" rx="24" fill="url(#bg)"/>

  <!-- connectors -->
  <g stroke="#93C5FD" stroke-width="3" stroke-linecap="round" opacity="0.9">
    <line x1="64" y1="64" x2="24" y2="28"/>
    <line x1="64" y1="64" x2="22" y2="64"/>
    <line x1="64" y1="64" x2="26" y2="92"/>
    <line x1="64" y1="64" x2="104" y2="28"/>
    <line x1="64" y1="64" x2="106" y2="64"/>
    <line x1="64" y1="64" x2="100" y2="100"/>
    <line x1="64" y1="64" x2="63" y2="16"/>
  </g>

  <!-- dots -->
  <circle cx="24" cy="28" r="6" fill="#22C55E"/>
  <circle cx="22" cy="64" r="6" fill="#3B82F6"/>
  <circle cx="26" cy="92" r="6" fill="#3B82F6"/>
  <circle cx="100" cy="100" r="6" fill="#22C55E"/>
  <circle cx="104" cy="28" r="6" fill="#F97316"/>
  <circle cx="106" cy="64" r="6" fill="#F97316"/>
  <circle cx="63" cy="16" r="6" fill="#FBBF24"/>

  <!-- magnifier lens -->
  <g>
    <circle cx="64" cy="56" r="26" fill="url(#lens)" stroke="#42D392" stroke-width="2"/>
    <!-- highlight -->
    <ellipse cx="56" cy="48" rx="10" ry="6" fill="#FFFFFF" opacity="0.08"/>
    <!-- handle -->
    <rect x="61" y="81" width="6" height="30" rx="3" fill="#42D392" transform="rotate(-10 64 64)"/>
  </g>

  <!-- Vue logo inside lens -->
  <g transform="translate(64,56) scale(0.28) translate(-64,-64)">
    <path d="M20 28h24l20 34 20-34h24L64 102 20 28z" fill="url(#vueOuter)"/>
    <path d="M36 28h16l12 20 12-20h16L64 76 36 28z" fill="url(#vueInner)"/>
  </g>
</svg>